<?xml version="1.0" standalone="no"?>
<!DOCTYPE svg PUBLIC "-//W3C//DTD SVG 20010904//EN"
 "http://www.w3.org/TR/2001/REC-SVG-20010904/DTD/svg10.dtd">
<svg version="1.0" xmlns="http://www.w3.org/2000/svg"
 width="350.000000pt" height="350.000000pt" viewBox="0 0 350.000000 350.000000"
 preserveAspectRatio="xMidYMid meet">
<metadata>
Created by potrace 1.14, written by Peter Selinger 2001-2017
</metadata>
<g transform="translate(0.000000,350.000000) scale(0.100000,-0.100000)"
fill="#000000" stroke="none">
<path d="M0 1750 l0 -1750 1750 0 1750 0 0 1750 0 1750 -1750 0 -1750 0 0
-1750z m2127 1345 c202 -38 377 -128 521 -269 507 -491 379 -1323 -253 -1636
-180 -89 -240 -102 -536 -109 l-247 -6 -237 -270 c-294 -335 -336 -379 -389
-405 -83 -40 -187 -19 -253 51 -67 71 -63 -15 -63 1296 0 1137 1 1190 19 1228
23 49 88 113 127 125 16 4 300 9 630 9 498 1 616 -2 681 -14z"/>
<path d="M1120 1935 c0 -399 1 -725 3 -725 1 0 56 61 122 136 70 79 137 145
160 157 38 21 57 22 345 28 273 5 311 8 360 26 104 38 165 76 233 144 115 115
178 284 163 440 -24 256 -207 457 -464 508 -33 7 -220 11 -487 11 l-435 0 0
-725z"/>
</g>
</svg>
